<?xml version="1.0" standalone="no"?>
<!DOCTYPE svg PUBLIC "-//W3C//DTD SVG 20010904//EN"
 "http://www.w3.org/TR/2001/REC-SVG-20010904/DTD/svg10.dtd">
<svg version="1.0" xmlns="http://www.w3.org/2000/svg"
 width="1227.000000pt" height="1227.000000pt" viewBox="0 0 1227.000000 1227.000000"
 preserveAspectRatio="xMidYMid meet">
<metadata>
Created by potrace 1.11, written by Peter Selinger 2001-2013
</metadata>
<g transform="translate(0.000000,1227.000000) scale(0.100000,-0.100000)"
fill="#000000" stroke="none">
<path d="M3246 10829 c-37 -109 -170 -780 -200 -1004 -31 -238 -57 -438 -61
-470 -2 -22 -7 -67 -10 -100 -4 -33 -8 -76 -10 -95 -2 -19 -7 -75 -11 -125 -3
-49 -7 -106 -9 -125 -2 -19 -6 -96 -10 -170 -4 -74 -9 -166 -11 -205 -6 -112
-5 -610 1 -730 11 -210 24 -390 30 -440 2 -16 7 -61 10 -100 4 -38 9 -79 11
-90 2 -11 9 -58 14 -105 6 -47 13 -96 15 -110 123 -740 312 -1292 615 -1796
229 -380 564 -744 900 -978 47 -33 87 -61 88 -62 2 -1 -19 -36 -47 -77 -56
-83 -73 -112 -124 -212 -47 -93 -52 -111 -31 -119 11 -4 18 1 22 16 10 42 98
202 165 302 l66 99 -46 29 c-220 140 -512 409 -700 645 -340 427 -588 943
-748 1558 -41 156 -95 403 -109 500 -4 23 -9 52 -11 65 -7 31 -22 138 -30 210
-3 30 -8 66 -10 80 -11 81 -15 113 -21 190 -3 47 -7 92 -9 100 -25 138 -26
1242 0 1380 1 8 6 58 10 112 3 53 8 109 10 125 2 15 6 60 10 98 3 39 7 84 9
100 2 17 7 62 11 100 4 39 9 79 11 90 2 11 6 43 9 70 4 28 8 61 10 75 2 14 11
75 20 135 46 314 172 963 191 984 6 7 133 -109 299 -272 138 -136 206 -208
375 -397 275 -310 640 -819 856 -1195 119 -208 290 -550 372 -745 64 -154 132
-326 132 -336 0 -4 8 -13 18 -20 9 -7 12 -14 6 -14 -7 0 -5 -20 8 -57 126
-375 238 -834 272 -1118 4 -27 9 -66 11 -85 6 -40 22 -179 29 -260 24 -252 25
-789 1 -980 -2 -19 -7 -64 -10 -100 -7 -87 -13 -131 -36 -285 -27 -185 -28
-187 -55 -319 -17 -81 -21 -123 -14 -130 5 -5 12 -7 15 -4 8 7 41 164 65 308
28 163 26 153 45 315 8 77 18 158 20 180 26 208 25 779 -1 1045 -7 73 -34 297
-40 335 -3 17 -7 44 -10 60 -184 1140 -672 2205 -1458 3185 -265 330 -607 690
-859 904 -39 33 -58 44 -61 35z"/>
<path d="M3592 9148 c-33 -109 -97 -360 -106 -418 -9 -53 -16 -93 -21 -110 -2
-8 -7 -37 -11 -65 -3 -27 -8 -57 -9 -66 -73 -383 -80 -917 -19 -1354 94 -672
353 -1340 752 -1942 73 -110 266 -372 308 -418 11 -12 44 -50 74 -85 30 -36
118 -130 196 -209 l141 -144 136 78 135 78 26 136 c30 157 53 332 64 475 14
197 8 568 -13 771 -50 486 -200 1036 -420 1540 -74 167 -261 533 -355 690
-228 384 -548 824 -792 1088 l-54 59 -32 -104z"/>
<path d="M8367 8954 c-1 -1 -38 -5 -82 -9 -67 -5 -277 -41 -350 -59 -155 -37
-435 -135 -535 -186 -102 -52 -365 -454 -516 -789 -122 -271 -241 -649 -289
-919 -2 -15 -9 -52 -15 -82 -14 -70 -37 -235 -45 -325 -4 -38 -9 -81 -11 -95
-24 -186 -24 -844 1 -1015 2 -16 6 -59 9 -95 17 -201 54 -442 115 -748 33
-165 40 -185 58 -174 9 6 7 30 -8 97 -55 242 -113 606 -135 840 -3 39 -8 84
-10 100 -22 182 -22 853 0 970 2 11 7 56 10 100 4 44 9 87 11 95 2 8 7 40 10
70 11 100 56 333 97 495 118 476 333 948 582 1278 115 153 123 159 263 215
164 64 324 114 466 146 100 23 149 31 302 51 52 7 341 7 380 0 162 -29 206
-38 245 -49 76 -23 182 -67 247 -104 l62 -36 0 -135 c-1 -75 2 -157 6 -182 15
-105 -97 -452 -235 -729 -29 -58 -60 -121 -70 -140 -9 -19 -34 -73 -55 -120
-21 -47 -41 -89 -45 -95 -4 -5 -29 -50 -55 -100 -26 -49 -69 -130 -95 -180
-26 -49 -127 -241 -225 -425 -97 -184 -180 -338 -183 -342 -4 -4 -7 77 -7 180
0 240 -8 341 -39 477 -45 194 -79 305 -136 440 -21 50 -59 140 -84 201 -83
198 -183 336 -274 376 -136 61 -317 -64 -454 -312 -89 -161 -196 -516 -238
-785 -6 -38 -13 -81 -15 -94 -7 -40 -34 -232 -39 -281 -3 -25 -8 -72 -11 -105
-3 -33 -8 -73 -10 -90 -2 -16 -7 -77 -10 -135 -4 -58 -8 -121 -10 -140 -4 -34
-13 -230 -20 -420 -9 -254 -2 -1051 10 -1160 1 -14 3 -49 4 -78 0 -30 5 -51
10 -47 5 3 15 -1 23 -8 12 -13 466 -142 473 -135 17 18 226 365 342 568 252
439 538 1010 721 1435 183 427 346 888 418 1184 39 162 61 223 129 366 87 184
195 486 195 546 0 26 18 24 25 -3 21 -92 26 -134 33 -236 12 -201 4 -544 -13
-572 -2 -3 -6 -22 -9 -42 -20 -130 -74 -308 -199 -663 -129 -367 -423 -996
-715 -1535 -166 -306 -446 -786 -584 -1000 l-35 -54 53 -71 c67 -90 119 -181
140 -250 10 -30 21 -55 26 -55 4 0 8 -7 8 -15 0 -8 -4 -15 -10 -15 -5 0 -10
-7 -10 -15 0 -8 7 -15 16 -15 14 0 16 9 12 64 -7 76 -54 181 -134 292 -58 81
-61 89 -40 113 22 26 239 388 385 645 323 564 603 1124 791 1581 34 83 68 164
75 180 32 72 137 374 179 514 82 273 101 396 101 661 0 246 -11 379 -41 495
-40 154 -46 200 -42 342 l3 132 -45 29 c-137 89 -334 154 -545 178 -55 6 -302
13 -308 8z"/>
<path d="M7973 3107 c-27 -98 -139 -186 -470 -369 -162 -89 -198 -113 -264
-178 -145 -145 -242 -336 -315 -624 -27 -106 -66 -347 -57 -356 2 -3 53 -5
112 -6 95 -1 167 4 281 20 87 12 203 50 295 95 255 126 403 334 471 661 26
124 25 506 -1 624 -5 21 -10 52 -21 116 -10 58 -19 63 -31 17z"/>
<path d="M4370 3135 c-2 -17 -8 -45 -19 -94 -46 -205 -49 -528 -7 -726 77
-362 286 -595 623 -694 108 -32 231 -48 392 -50 l143 -2 -6 68 c-27 266 -133
592 -253 778 -83 128 -166 198 -368 309 -355 196 -443 262 -483 366 -11 30
-22 51 -22 45z"/>
</g>
</svg>
